<?xml version="1.0" standalone="no"?>
<!DOCTYPE svg PUBLIC "-//W3C//DTD SVG 20010904//EN"
 "http://www.w3.org/TR/2001/REC-SVG-20010904/DTD/svg10.dtd">
<svg version="1.0" xmlns="http://www.w3.org/2000/svg"
 width="16.000000pt" height="16.000000pt" viewBox="0 0 16.000000 16.000000"
 preserveAspectRatio="xMidYMid meet">
<metadata>
Created by potrace 1.11, written by Peter Selinger 2001-2013
</metadata>
<g transform="translate(0.000000,16.000000) scale(0.006154,-0.006154)"
fill="#000000" stroke="none">
<path d="M0 1300 l0 -1300 1300 0 1300 0 0 1300 0 1300 -1300 0 -1300 0 0
-1300z m2430 0 l0 -1130 -1130 0 -1130 0 0 1130 0 1130 1130 0 1130 0 0 -1130z"/>
<path d="M480 2195 l0 -85 165 0 165 0 0 -160 0 -160 -160 0 -160 0 0 80 0 80
-85 0 -85 0 0 -85 0 -85 80 0 80 0 0 -80 0 -80 170 0 170 0 0 80 0 80 80 0 80
0 0 250 0 250 -250 0 -250 0 0 -85z"/>
<path d="M2110 2200 l0 -80 -80 0 -80 0 0 -85 0 -85 -85 0 -85 0 0 -80 0 -80
-80 0 -80 0 0 -80 0 -80 -80 0 -80 0 0 -80 0 -80 -80 0 -80 0 0 -85 0 -85 -85
0 -85 0 0 -80 0 -80 -80 0 -80 0 0 -80 0 -80 -80 0 -80 0 0 -80 0 -80 -80 0
-80 0 0 -85 0 -85 -85 0 -85 0 0 -80 0 -80 -80 0 -80 0 0 -85 0 -85 85 0 85 0
0 80 0 80 80 0 80 0 0 85 0 85 85 0 85 0 0 80 0 80 80 0 80 0 0 80 0 80 80 0
80 0 0 80 0 80 80 0 80 0 0 85 0 85 85 0 85 0 0 80 0 80 80 0 80 0 0 80 0 80
80 0 80 0 0 80 0 80 80 0 80 0 0 85 0 85 85 0 85 0 0 80 0 80 80 0 80 0 0 85
0 85 -85 0 -85 0 0 -80z"/>
<path d="M1620 730 l0 -250 85 0 85 0 0 165 0 165 160 0 160 0 0 -160 0 -160
-80 0 -80 0 0 -85 0 -85 85 0 85 0 0 80 0 80 80 0 80 0 0 170 0 170 -80 0 -80
0 0 80 0 80 -250 0 -250 0 0 -250z"/>
</g>
</svg>
