<?xml version="1.0" standalone="no"?>
<!DOCTYPE svg PUBLIC "-//W3C//DTD SVG 20010904//EN"
 "http://www.w3.org/TR/2001/REC-SVG-20010904/DTD/svg10.dtd">
<svg version="1.0" xmlns="http://www.w3.org/2000/svg"
 width="468pt" height="226pt" viewBox="0 0 468 226"
 preserveAspectRatio="xMidYMid meet">
<metadata>
Created by POTRACE VERSION, written by Peter Selinger 2001-2007
</metadata>
<g transform="translate(0,226) scale(0.117000,-0.117000)"
fill="#000000" stroke="none">
<path d="M812 1873 c-10 -16 -30 -49 -45 -74 -14 -25 -56 -119 -92 -209 -37
-89 -77 -179 -90 -200 -13 -21 -57 -78 -98 -127 -41 -48 -93 -107 -116 -130
-24 -24 -70 -61 -103 -83 -40 -27 -71 -40 -93 -40 -24 0 -39 7 -54 26 -13 17
-21 41 -21 65 0 21 9 63 21 94 13 36 38 73 69 104 26 26 63 55 81 63 19 9 51
23 72 32 20 8 37 20 37 25 0 6 -6 11 -14 11 -8 0 -36 -9 -62 -20 -26 -12 -69
-37 -95 -56 -27 -19 -61 -54 -77 -77 -15 -23 -34 -58 -41 -77 -8 -19 -18 -39
-23 -44 -4 -6 -8 -27 -8 -47 0 -21 10 -54 21 -74 12 -20 34 -42 50 -50 15 -8
38 -15 51 -15 13 0 46 13 73 29 28 16 78 53 112 83 34 29 78 74 98 101 20 26
41 47 46 47 6 0 -8 -33 -30 -74 -23 -40 -47 -91 -55 -112 -7 -22 -27 -68 -44
-104 -17 -36 -42 -94 -56 -130 -14 -36 -33 -93 -42 -127 -9 -34 -14 -69 -10
-78 3 -9 10 -14 15 -11 4 3 48 69 97 146 49 77 107 170 129 206 22 35 76 124
120 197 43 73 87 143 96 157 9 14 60 90 112 170 53 80 117 169 142 198 26 28
51 52 57 52 6 0 8 -11 4 -27 -4 -16 -43 -100 -88 -188 -45 -88 -91 -176 -104
-196 -12 -20 -45 -80 -72 -135 -27 -54 -65 -126 -84 -160 -19 -33 -46 -85 -60
-115 -15 -29 -36 -82 -47 -116 -13 -39 -21 -88 -21 -130 0 -46 5 -76 16 -91 8
-12 25 -22 37 -22 12 0 46 21 75 46 29 26 54 45 55 43 2 -2 7 -17 12 -33 6
-16 18 -34 27 -40 14 -8 23 -5 47 18 16 15 40 48 53 72 12 24 27 44 31 44 4 0
5 -15 2 -34 -4 -19 -2 -43 4 -55 7 -12 19 -21 27 -21 8 0 38 23 65 51 28 27
55 49 61 47 5 -2 -6 -24 -25 -48 -18 -25 -70 -119 -114 -210 -45 -91 -90 -193
-102 -228 -12 -34 -21 -78 -21 -96 0 -19 4 -37 9 -41 5 -3 21 9 35 27 13 18
46 80 73 138 27 58 56 123 65 145 9 22 32 78 50 125 l34 85 40 0 c25 1 52 9
71 23 16 11 42 37 57 57 15 19 40 42 56 50 16 8 31 15 35 15 3 0 5 -24 5 -54
0 -48 3 -57 31 -80 17 -14 40 -26 51 -26 11 0 45 26 76 58 43 43 68 81 102
154 37 80 49 97 65 95 12 -1 19 -8 16 -17 -2 -8 -6 -55 -8 -105 -5 -83 -3 -93
19 -125 13 -19 33 -36 45 -38 12 -2 40 6 62 18 23 11 41 25 41 30 0 6 9 10 19
10 11 0 22 -8 25 -18 4 -11 17 -25 30 -32 15 -7 36 -10 53 -5 15 3 42 17 58
29 17 12 36 26 43 30 8 5 16 -2 23 -23 7 -20 20 -33 35 -37 13 -3 36 -3 52 1
15 3 47 28 72 53 25 26 52 61 60 77 8 17 22 41 31 55 10 14 27 53 38 87 11 33
23 79 27 102 6 36 12 45 45 61 21 11 43 20 49 20 5 0 10 -6 10 -14 0 -8 -34
-81 -77 -163 -42 -81 -85 -165 -95 -185 -11 -20 -18 -49 -16 -65 2 -19 9 -29
23 -31 13 -1 27 9 41 30 11 18 58 98 104 178 46 80 95 161 109 180 14 19 30
38 36 42 5 4 11 5 13 3 3 -2 -14 -41 -36 -87 -22 -46 -50 -111 -62 -145 -11
-34 -22 -83 -22 -110 -1 -26 2 -58 6 -70 6 -17 15 -23 38 -23 24 0 42 13 90
62 34 35 79 90 101 123 22 33 52 77 65 98 14 20 29 37 33 37 4 0 20 -10 35
-23 25 -22 26 -25 11 -48 -8 -13 -25 -53 -36 -88 -12 -35 -21 -83 -21 -107 0
-23 3 -49 6 -58 3 -9 11 -16 16 -16 6 0 17 8 25 17 7 10 25 40 39 67 15 28 35
75 45 105 10 31 19 66 19 78 0 17 10 27 37 38 20 8 38 13 41 10 3 -3 0 -22 -6
-44 -7 -21 -15 -72 -18 -112 -6 -71 -5 -76 21 -107 15 -17 34 -32 43 -32 10 0
35 9 57 19 22 10 54 32 70 49 17 17 33 32 37 32 4 0 17 -22 28 -48 13 -29 33
-55 50 -65 20 -12 38 -15 57 -11 15 4 39 14 53 22 14 9 35 25 48 36 l24 21 20
-28 c12 -17 29 -27 44 -27 14 0 38 7 54 15 17 9 47 38 67 65 21 27 50 69 66
93 15 25 27 52 27 62 0 9 -6 15 -12 13 -7 -3 -28 -31 -45 -62 -18 -32 -45 -72
-59 -90 -15 -17 -40 -39 -56 -50 -28 -18 -30 -18 -48 -1 -11 10 -20 24 -20 31
0 7 12 26 26 41 15 15 49 60 76 98 27 39 65 101 84 139 19 37 48 114 65 170
17 55 35 112 41 126 5 14 12 59 15 100 5 62 3 78 -11 89 -13 11 -22 11 -47 1
-16 -7 -49 -38 -73 -69 -24 -31 -57 -84 -74 -118 -18 -34 -38 -79 -45 -100 -8
-21 -26 -72 -40 -113 -14 -41 -33 -106 -41 -143 -9 -38 -16 -97 -16 -133 0
-58 -3 -68 -27 -91 -16 -14 -41 -34 -58 -44 -16 -11 -38 -19 -48 -19 -10 0
-29 12 -42 26 -19 20 -25 38 -25 72 0 39 9 56 73 146 39 56 100 158 133 226
34 69 69 142 78 162 8 21 23 76 33 122 16 80 16 87 0 120 -14 30 -22 36 -47
36 -22 0 -43 -12 -76 -42 -25 -23 -62 -71 -83 -107 -21 -36 -55 -113 -74 -171
-20 -58 -45 -143 -56 -190 -11 -47 -22 -119 -25 -160 -2 -41 -7 -82 -10 -90
-4 -8 -33 -36 -63 -62 -43 -36 -64 -48 -89 -48 -28 0 -35 4 -40 27 -4 15 -2
67 5 116 6 49 17 99 23 111 6 11 27 41 47 66 20 25 45 57 54 72 9 15 18 42 19
60 2 24 -1 33 -15 36 -10 2 -29 -8 -43 -23 -13 -14 -24 -32 -24 -40 0 -7 -4
-15 -8 -17 -4 -1 -17 -25 -27 -51 -14 -34 -30 -54 -57 -69 -20 -11 -43 -18
-52 -15 -9 4 -16 18 -16 32 0 14 21 74 46 133 26 59 62 139 80 179 18 40 45
100 59 135 15 35 42 95 61 134 19 39 34 81 34 94 0 12 -5 20 -11 18 -5 -2 -51
-96 -100 -208 -49 -113 -110 -250 -134 -305 -24 -55 -49 -101 -54 -103 -6 -2
-11 3 -11 10 0 8 -9 31 -20 52 l-19 39 36 116 c20 64 44 147 55 184 11 38 17
75 14 83 -3 8 -10 14 -15 14 -5 0 -19 -30 -30 -67 -11 -38 -34 -114 -51 -170
-17 -57 -35 -103 -39 -103 -5 0 -14 7 -21 16 -7 8 -24 14 -38 12 -14 -2 -34
-16 -46 -31 -15 -20 -20 -42 -20 -80 1 -31 10 -70 23 -96 11 -25 21 -51 21
-60 0 -8 -15 -37 -32 -65 -18 -28 -56 -83 -85 -122 -28 -39 -66 -83 -83 -98
-25 -21 -35 -24 -46 -15 -8 6 -14 17 -14 25 0 7 12 50 26 96 14 46 46 125 71
177 25 52 45 106 46 120 2 20 -3 27 -22 29 -16 3 -34 -7 -58 -30 -19 -18 -62
-80 -95 -138 -34 -58 -70 -116 -80 -129 -10 -14 -27 -44 -38 -68 -10 -24 -24
-43 -30 -43 -6 0 6 30 26 68 20 37 47 85 59 107 13 22 39 71 59 109 22 41 36
80 34 95 -3 22 -9 26 -42 29 -22 2 -50 -2 -63 -9 -21 -11 -27 -8 -77 44 -52
54 -57 57 -104 57 -34 0 -57 -6 -75 -20 -13 -11 -28 -31 -31 -46 -5 -17 -1
-35 9 -50 14 -22 13 -27 -15 -78 -16 -30 -38 -82 -49 -115 -11 -33 -23 -81
-27 -106 -6 -40 -13 -52 -61 -90 -30 -25 -63 -45 -72 -45 -10 0 -25 8 -34 18
-10 10 -17 23 -17 29 0 6 23 46 52 89 28 44 66 111 85 151 18 39 38 94 44 122
7 36 7 55 -1 70 -6 12 -17 21 -25 21 -8 0 -31 -15 -51 -32 -21 -18 -52 -55
-69 -83 -17 -27 -39 -77 -48 -110 -8 -33 -20 -80 -26 -105 -5 -25 -12 -57 -15
-71 -3 -14 -22 -42 -41 -62 -20 -20 -45 -37 -56 -37 -14 0 -25 12 -36 38 -14
32 -14 49 -4 122 10 76 15 88 45 116 18 17 37 33 42 35 5 2 32 29 59 60 28 30
71 91 96 135 25 43 58 106 73 139 15 33 36 86 47 119 10 32 19 69 19 82 0 12
-7 30 -16 38 -8 9 -18 16 -20 16 -3 0 -17 -6 -32 -14 -15 -8 -41 -31 -58 -52
-17 -22 -59 -88 -94 -149 -34 -60 -80 -155 -102 -210 -21 -55 -45 -116 -52
-135 -9 -23 -21 -36 -36 -38 -19 -3 -22 0 -17 20 4 12 12 46 18 74 7 28 9 58
6 67 -4 10 -15 17 -26 17 -11 0 -28 -11 -39 -25 -11 -13 -25 -39 -32 -56 -12
-27 -11 -39 3 -79 l17 -47 -36 -84 c-19 -46 -47 -100 -61 -119 -15 -19 -38
-45 -52 -57 -14 -12 -33 -22 -42 -23 -9 0 -24 9 -34 20 -14 16 -16 29 -11 71
5 37 17 64 47 102 21 29 43 57 47 62 4 6 22 30 39 55 17 25 45 76 62 115 22
49 30 77 26 97 -4 15 -11 28 -16 28 -5 0 -18 -9 -29 -20 -12 -12 -36 -45 -55
-74 -19 -30 -49 -87 -68 -127 -19 -41 -38 -85 -42 -99 -4 -14 -15 -35 -23 -47
-8 -13 -21 -23 -28 -23 -8 0 -14 3 -14 6 0 4 9 23 20 43 10 20 30 63 43 96 14
33 30 84 38 113 11 45 11 54 -2 68 -14 13 -20 11 -62 -23 -25 -21 -67 -66 -92
-100 -26 -35 -51 -66 -57 -69 -6 -4 -8 2 -3 17 4 13 22 47 40 76 19 28 46 79
60 114 15 34 27 80 28 103 2 30 -2 41 -12 41 -9 0 -29 -32 -49 -80 -18 -44
-42 -98 -51 -120 -10 -22 -37 -88 -61 -146 -28 -72 -60 -130 -98 -180 -30 -41
-65 -81 -76 -89 -12 -8 -25 -15 -31 -15 -6 0 -9 22 -7 53 2 29 10 76 17 105 8
28 23 79 34 111 12 33 21 68 21 78 0 11 -5 18 -12 16 -7 -3 -21 -27 -31 -54
-11 -27 -25 -62 -32 -79 -7 -16 -37 -79 -65 -138 -28 -59 -58 -111 -66 -114
-8 -3 -17 -3 -20 0 -4 3 -3 28 1 56 5 35 23 77 57 133 28 46 59 99 71 118 11
19 37 68 58 108 21 41 41 89 45 109 4 19 2 39 -4 45 -6 6 -16 6 -29 -2 -11 -7
-28 -27 -40 -44 -11 -17 -36 -57 -57 -88 -20 -31 -49 -84 -65 -117 -16 -34
-37 -93 -47 -133 -17 -65 -26 -80 -83 -140 -36 -38 -70 -68 -77 -68 -8 0 -18
9 -24 19 -5 11 -10 37 -10 58 0 21 7 65 15 98 9 32 58 140 109 239 51 100 112
216 135 259 22 42 59 112 82 155 23 42 63 120 90 172 26 53 51 115 55 138 5
33 3 43 -10 48 -9 3 -27 -1 -40 -10 -14 -8 -39 -30 -56 -48 -17 -18 -71 -87
-120 -154 -48 -66 -129 -190 -180 -275 -51 -85 -105 -172 -120 -194 -15 -22
-30 -47 -33 -55 -4 -8 -16 -28 -27 -45 -11 -16 -27 -43 -36 -60 -9 -16 -20
-32 -24 -35 -4 -3 -22 -33 -39 -67 -17 -35 -36 -63 -41 -63 -6 0 -10 7 -10 15
0 8 4 23 9 33 5 9 27 55 49 102 21 47 51 114 67 150 15 36 66 142 112 235 47
94 90 177 97 185 7 8 47 78 89 155 42 77 82 161 88 187 10 38 10 49 0 62 -8 9
-17 16 -22 16 -4 0 -16 -12 -27 -27z m1252 -402 c3 -5 -3 -35 -15 -67 -11 -33
-26 -77 -34 -99 -7 -22 -21 -58 -32 -80 -10 -22 -39 -73 -65 -113 -26 -39 -66
-92 -89 -117 -23 -25 -48 -45 -56 -45 -10 0 -12 7 -8 23 4 12 18 51 32 87 14
36 32 81 41 100 9 19 38 76 65 125 28 50 70 114 94 143 25 28 48 52 53 52 5 0
11 -4 14 -9z m1572 -46 c3 -19 1 -58 -6 -87 -7 -29 -30 -96 -50 -149 -21 -53
-59 -134 -85 -180 -26 -46 -68 -112 -93 -146 -25 -35 -49 -63 -54 -63 -4 0 -8
11 -8 24 0 13 7 63 15 112 9 49 31 139 50 201 19 61 51 142 71 180 20 37 53
85 74 106 21 20 48 37 59 37 15 0 22 -9 27 -35z m234 -59 c0 -14 -7 -58 -15
-98 -9 -40 -25 -102 -36 -138 -11 -36 -42 -112 -69 -169 -28 -57 -74 -135
-102 -172 -29 -38 -58 -69 -65 -69 -8 0 -11 10 -8 28 2 15 9 59 16 97 7 39 32
126 56 195 24 69 56 152 72 185 15 33 49 84 75 113 26 28 54 52 62 52 8 0 14
-10 14 -24z m-992 -218 c7 -7 12 -23 11 -37 0 -15 -6 -42 -13 -61 -7 -19 -19
-35 -27 -35 -9 0 -17 18 -23 48 -6 32 -5 57 3 73 6 13 17 24 24 24 7 0 18 -5
25 -12z m-548 -29 c9 -4 22 -19 29 -33 8 -13 11 -32 8 -40 -4 -9 -18 -16 -32
-16 -18 0 -25 5 -25 19 0 11 -3 26 -6 35 -3 9 -13 16 -22 16 -8 0 -23 -7 -33
-16 -10 -9 -23 -13 -28 -9 -6 3 -11 12 -11 20 0 8 10 21 21 29 14 10 33 13 53
9 17 -3 38 -9 46 -14z m-1375 -106 c-14 -26 -34 -63 -44 -80 -10 -18 -24 -40
-31 -48 -7 -8 -16 -15 -21 -15 -5 0 -5 8 -2 18 4 9 25 49 46 87 22 39 47 78
55 88 9 10 18 14 20 9 2 -6 -8 -32 -23 -59z m605 48 c0 -6 -16 -37 -35 -70
-20 -33 -40 -63 -46 -67 -6 -3 -12 -4 -14 -2 -3 2 5 22 16 44 12 21 31 54 42
71 12 18 25 33 30 33 4 0 7 -4 7 -9z m490 -23 c0 -11 -25 -72 -56 -135 -31
-62 -63 -118 -71 -124 -7 -7 -16 -9 -19 -6 -4 3 1 30 11 59 10 29 29 80 44
112 14 33 37 73 49 88 13 15 28 28 33 28 5 0 9 -10 9 -22z m894 -10 c8 -18 16
-49 20 -69 5 -29 3 -38 -10 -43 -9 -4 -28 1 -42 10 -20 13 -23 22 -19 47 3 18
10 44 16 60 6 15 13 27 16 27 3 0 12 -15 19 -32z m-1544 8 c0 -7 -7 -31 -15
-52 -9 -22 -41 -89 -71 -151 -31 -61 -62 -114 -69 -116 -7 -3 -33 -9 -59 -12
-25 -4 -46 -4 -46 0 0 3 5 16 11 28 7 12 36 58 65 102 29 44 78 110 109 148
30 37 60 67 65 67 6 0 10 -6 10 -14z m260 -8 c0 -7 -3 -23 -6 -35 -4 -13 -10
-23 -15 -23 -5 0 -9 16 -9 35 0 24 5 35 15 35 8 0 15 -6 15 -12z m590 -42 c0
-8 -19 -47 -42 -87 -23 -40 -44 -67 -46 -60 -2 6 2 26 9 44 7 18 23 51 37 75
13 23 28 42 33 42 5 0 9 -6 9 -14z m134 -5 c3 -4 -3 -36 -13 -72 -10 -37 -35
-97 -56 -134 -20 -37 -53 -85 -71 -105 -19 -21 -46 -41 -60 -44 -15 -4 -32 -2
-40 5 -8 6 -14 24 -14 38 0 15 11 42 25 61 14 19 25 38 25 43 0 4 11 23 25 41
13 17 36 59 51 91 15 33 31 65 36 72 5 6 27 11 49 11 22 0 41 -3 43 -7z m590
-140 c3 -5 -5 -39 -18 -77 -13 -38 -29 -81 -36 -96 -7 -16 -17 -28 -22 -28 -4
0 -8 3 -8 8 0 4 5 27 10 52 6 25 20 69 31 98 12 28 25 52 30 52 4 0 10 -4 13
-9z m-1786 -193 c-3 -7 -17 -14 -31 -16 -15 -2 -27 1 -27 7 0 5 10 12 23 14
12 2 26 5 30 6 5 0 7 -5 5 -11z"/>
<path d="M3290 1319 c-11 -26 -11 -33 3 -46 13 -14 19 -14 32 -3 9 7 20 21 26
31 5 10 6 25 3 33 -3 9 -16 16 -29 16 -16 0 -26 -9 -35 -31z"/>
</g>
</svg>
